<svg id="imageCom" xmlns="http://www.w3.org/2000/svg" width="32" height="32" viewBox="0 0 32 32">
  <path id="Path_4" data-name="Path 4" d="M4,22H2V4A2,2,0,0,1,4,2H22V4H4Z" fill="#125cab"/>
  <path id="Path_5" data-name="Path 5" d="M21,17a3,3,0,1,0-3-3A3,3,0,0,0,21,17Zm0-4a1,1,0,1,1-1,1,1,1,0,0,1,1-1Z" fill="#125cab"/>
  <path id="Path_6" data-name="Path 6" d="M28,7H9A2,2,0,0,0,7,9V28a2,2,0,0,0,2,2H28a2,2,0,0,0,2-2V9a2,2,0,0,0-2-2Zm0,21H9V22l4-4,5.586,5.586a2,2,0,0,0,2.828,0L23,22l5,5Zm0-3.828-3.586-3.586a2,2,0,0,0-2.828,0L20,22.172l-5.586-5.586a2,2,0,0,0-2.828,0L9,19.172V9H28Z" fill="#125cab"/>
  <rect id="_Transparent_Rectangle_" data-name="&lt;Transparent Rectangle&gt;" width="32" height="32" fill="none"/>
</svg>
