<?xml version="1.0" standalone="no"?>
<!DOCTYPE svg PUBLIC "-//W3C//DTD SVG 20010904//EN"
 "http://www.w3.org/TR/2001/REC-SVG-20010904/DTD/svg10.dtd">
<svg version="1.0" xmlns="http://www.w3.org/2000/svg"
 width="512.000000pt" height="512.000000pt" viewBox="0 0 512.000000 512.000000"
 preserveAspectRatio="xMidYMid meet">
<metadata>
Created by potrace 1.14, written by Peter Selinger 2001-2017
</metadata>
<g transform="translate(0.000000,512.000000) scale(0.100000,-0.100000)"
fill="#000000" stroke="none">
<path d="M515 5104 c-111 -27 -221 -90 -310 -179 -89 -89 -131 -154 -172 -265
l-28 -75 0 -2025 0 -2025 27 -73 c73 -200 219 -348 418 -424 l85 -33 2025 0
2025 0 83 32 c202 78 345 222 419 423 l28 75 3 1985 c2 1347 -1 2005 -8 2046
-42 251 -259 480 -510 539 -96 22 -3992 21 -4085 -1z m3432 -735 c184 -25 333
-144 383 -307 19 -62 20 -95 20 -833 l0 -769 -170 0 -170 0 0 749 0 748 -23
34 c-13 19 -38 39 -57 46 -27 9 -386 12 -1475 12 -1406 1 -1441 0 -1483 -19
-77 -35 -72 48 -72 -1220 0 -621 3 -1130 8 -1129 4 0 135 151 291 335 156 185
294 342 307 351 28 18 112 20 143 4 12 -7 87 -88 167 -182 80 -94 150 -169
154 -167 5 2 187 232 406 512 219 280 412 517 428 527 35 21 100 24 133 6 12
-7 125 -145 251 -307 l230 -295 -222 -5 c-193 -4 -225 -7 -252 -24 -67 -40
-64 -15 -64 -640 l0 -566 -962 0 c-613 0 -979 4 -1007 11 -75 17 -150 59 -217
121 -77 72 -119 153 -134 253 -13 97 -13 2314 0 2386 15 77 60 166 114 226 59
65 182 129 271 142 91 13 2906 13 3002 0z m-2127 -642 c76 -27 170 -122 195
-196 55 -166 -19 -333 -183 -409 -49 -23 -70 -27 -152 -27 -82 0 -103 4 -152
27 -69 32 -134 95 -168 163 -21 42 -25 64 -25 140 0 75 4 97 23 133 90 169
275 237 462 169z m2110 -1617 c11 -11 20 -26 20 -34 0 -8 -22 -73 -50 -146
-27 -73 -50 -138 -50 -146 0 -11 30 -14 164 -14 152 0 165 -2 191 -21 51 -41
41 -63 -200 -416 -231 -339 -245 -354 -300 -333 -42 16 -41 48 14 265 28 113
51 209 51 215 0 6 -61 10 -169 10 -150 0 -171 2 -192 19 -18 14 -23 28 -22 57
3 60 61 507 69 527 4 10 16 23 28 27 12 5 112 9 224 9 189 1 203 0 222 -19z"/>
</g>
</svg>
