<svg id="secure" xmlns="http://www.w3.org/2000/svg" width="32" height="32" viewBox="0 0 32 32">
  <path id="Path_7" data-name="Path 7" d="M25,14l-2.1-1A5.1,5.1,0,0,1,20,8.5V2H30V8.5A4.925,4.925,0,0,1,27.1,13ZM22,4V8.5a3.011,3.011,0,0,0,1.7,2.7l1.3.6,1.3-.6A3.129,3.129,0,0,0,28,8.5V4Z" fill="#125cab"/>
  <path id="Path_8" data-name="Path 8" d="M28,16v6H4V6H16V4H4A2.006,2.006,0,0,0,2,6V22a2.006,2.006,0,0,0,2,2h8v4H8v2H24V28H20V24h8a2.006,2.006,0,0,0,2-2V16ZM18,28H14V24h4Z" fill="#125cab"/>
  <rect id="_x3C_Transparent_Rectangle_x3E__589_" width="32" height="32" fill="none"/>
</svg>
