<svg id="version" xmlns="http://www.w3.org/2000/svg" width="32" height="32" viewBox="0 0 32 32">
  <path id="Path_9" data-name="Path 9" d="M16,2V4H26V19h2V4a2,2,0,0,0-2-2Z" fill="#125cab"/>
  <path id="Path_10" data-name="Path 10" d="M11,7V9H21V24h2V9a2,2,0,0,0-2-2Z" fill="#125cab"/>
  <path id="Path_11" data-name="Path 11" d="M6,12H16a2,2,0,0,1,2,2V28a2,2,0,0,1-2,2H6a2,2,0,0,1-2-2V14a2,2,0,0,1,2-2Zm10,2H6V28H16Z" fill="#125cab"/>
  <rect id="_Transparent_Rectangle_" data-name="&lt;Transparent Rectangle&gt;" width="32" height="32" fill="none"/>
</svg>
